<?xml version="1.0" encoding="UTF-8"?>
<svg width="1920px" height="1081px" viewBox="0 0 1920 1081" version="1.1" xmlns="http://www.w3.org/2000/svg" xmlns:xlink="http://www.w3.org/1999/xlink">
    <title>Slice</title>
    <g id="Page-1" stroke="none" stroke-width="1" fill="none" fill-rule="evenodd">
        <rect id="Rectangle" fill="#FFFFFF" x="0" y="0" width="1920" height="1080"></rect>
        <g id="blob-(5)" transform="translate(76.563677, 964.218010) rotate(-51.000000) translate(-76.563677, -964.218010) translate(-155.936323, 651.218010)" fill="#FDCD83" fill-rule="nonzero">
            <path d="M452.023253,94.3336006 C476.222568,159.681314 419.793542,244.943631 421.354788,336.339034 C423.306346,427.27746 483.248175,525.262925 459.048861,576.44435 C435.239858,628.082753 355.225995,637.222293 297.069578,612.088557 C238.913161,586.954822 201.833566,527.090833 143.677149,475.909407 C85.5207321,424.727982 5.50686966,381.315165 0.432819846,331.961648 C-5.03154149,282.60813 64.0535983,227.313912 122.210015,161.509222 C180.756744,96.1615086 227.984438,20.7603013 290.043971,4.30912882 C351.713191,-12.5990207 428.21425,28.9858876 452.023253,94.3336006 Z" id="Path"></path>
        </g>
        <g id="blob-(5)" transform="translate(219.365237, 945.250126) rotate(-51.000000) translate(-219.365237, -945.250126) translate(-13.134763, 612.250126)" fill="#FDCD83" fill-opacity="0.523246285" fill-rule="nonzero">
            <path d="M452.023253,100.336951 C476.222568,169.866918 419.793542,260.586024 421.354788,357.830732 C423.306346,454.589217 483.248175,558.845752 459.048861,613.302789 C435.239858,668.246049 355.225995,677.97052 297.069578,651.228225 C238.913161,624.48593 201.833566,560.790646 143.677149,506.33361 C85.5207321,451.876573 5.50686966,405.685336 0.432819846,353.173194 C-5.03154149,300.661051 64.0535983,241.828002 122.210015,171.811812 C180.756744,102.281845 227.984438,22.0549609 290.043971,4.55091334 C351.713191,-13.4393577 428.21425,30.8069847 452.023253,100.336951 Z" id="Path"></path>
        </g>
        <g id="blob-(4)" transform="translate(1693.000000, 1080.500000) rotate(180.000000) translate(-1693.000000, -1080.500000) translate(1388.000000, 877.000000)" fill="#E8E8E8" fill-opacity="0.500928759" fill-rule="nonzero">
            <path d="M469.26267,70.3191773 C528.373921,106.224941 580.917256,144.455539 601.007354,190.952212 C620.711104,237.448885 608.347967,291.953318 560.827157,320.884581 C513.692696,349.557529 432.173258,352.398993 358.76713,369.706088 C285.747349,386.754868 133.139871,415.12603 91.0279342,404.793436 C49.3023453,394.719157 11.0775398,345.721144 3.1409209,300.026275 C-4.795698,254.331407 3.1409209,222.180251 17.6218056,185.269285 C32.1026903,148.35832 41.9617324,102.350219 91.0279342,65.4111952 C140.094136,28.4721717 209.636784,-1.49235083 277.247692,0.0575382692 C344.8586,1.60742737 410.15142,34.6717281 469.26267,70.3191773 Z" id="Path"></path>
        </g>
        <circle id="Oval" fill="#D77A68" cx="1844" cy="313" r="6"></circle>
        <circle id="Oval" fill="#D77A68" cx="1844" cy="373" r="6"></circle>
        <circle id="Oval" fill="#D77A68" cx="1844" cy="334" r="6"></circle>
        <circle id="Oval" fill="#D77A68" cx="1844" cy="352" r="6"></circle>
        <polygon id="Triangle" fill="#265854" transform="translate(298.617479, 193.114421) rotate(17.000000) translate(-298.617479, -193.114421) " points="298.617479 169.114421 323.117479 217.114421 274.117479 217.114421"></polygon>
        <path d="M308.617479,180.104951 L342.245898,237.614421 L274.98906,237.614421 L308.617479,180.104951 Z" id="Triangle" stroke="#265854" transform="translate(308.617479, 208.614421) rotate(17.000000) translate(-308.617479, -208.614421) "></path>
    </g>
</svg>