<?xml version="1.0" encoding="UTF-8"?>
<svg width="1909px" height="1083px" viewBox="0 0 1909 1083" version="1.1" xmlns="http://www.w3.org/2000/svg" xmlns:xlink="http://www.w3.org/1999/xlink">
    <title>Slice</title>
    <g id="Page-1" stroke="none" stroke-width="1" fill="none" fill-rule="evenodd">
        <rect id="Rectangle" fill="#FFFFFF" x="0" y="0" width="1920" height="1080"></rect>
        <g id="blob-(5)" transform="translate(-251.000000, 703.000000)" fill="#FDCD83" fill-rule="nonzero">
            <path d="M413.555317,124.432156 C427.028234,168.04314 381.811699,230.054785 377.61846,292.923879 C373.730267,355.455509 410.812296,419.474186 390.572597,456.136889 C370.584873,493.091726 312.959588,504.034061 272.921096,490.097239 C232.882603,476.160417 209.900418,437.074969 171.374501,405.194617 C132.848583,373.314265 78.2749843,348.054741 77.5202849,314.351121 C76.4870755,280.670166 128.994255,238.567779 174.313491,189.859645 C219.8847,141.443645 257.96292,86.7593616 303.201325,71.8228436 C348.187756,56.5941921 400.36091,80.798507 413.555317,124.432156 Z" id="Path" transform="translate(246.779356, 281.592060) rotate(-51.000000) translate(-246.779356, -281.592060) "></path>
        </g>
        <g id="blob-(5)" transform="translate(-170.000000, 679.000000)" fill="#FDCD83" fill-opacity="0.523246285" fill-rule="nonzero">
            <path d="M424.405558,123.844569 C437.588091,170.315824 391.965012,236.129181 387.355491,303.024253 C383.053223,369.561415 419.707272,437.850162 399.226573,476.787293 C378.995888,516.036385 321.303773,527.444886 281.36161,512.446693 C241.419448,497.448499 218.698592,455.754626 180.387785,421.665146 C142.076977,387.575666 87.6761919,360.466659 87.1449544,324.592365 C86.3350843,288.741047 139.116129,244.147416 184.753723,192.493574 C230.64133,141.151692 269.078233,83.107509 314.411167,67.3968845 C359.494088,51.3742998 411.501659,77.3503392 424.405558,123.844569 Z" id="Path" transform="translate(256.961615, 290.727151) rotate(-51.000000) translate(-256.961615, -290.727151) "></path>
        </g>
        <g id="blob-(4)" transform="translate(1693.000000, 1080.500000) rotate(180.000000) translate(-1693.000000, -1080.500000) translate(1388.000000, 877.000000)" fill="#E8E8E8" fill-opacity="0.500928759" fill-rule="nonzero">
            <path d="M469.26267,70.3191773 C528.373921,106.224941 580.917256,144.455539 601.007354,190.952212 C620.711104,237.448885 608.347967,291.953318 560.827157,320.884581 C513.692696,349.557529 432.173258,352.398993 358.76713,369.706088 C285.747349,386.754868 133.139871,415.12603 91.0279342,404.793436 C49.3023453,394.719157 11.0775398,345.721144 3.1409209,300.026275 C-4.795698,254.331407 3.1409209,222.180251 17.6218056,185.269285 C32.1026903,148.35832 41.9617324,102.350219 91.0279342,65.4111952 C140.094136,28.4721717 209.636784,-1.49235083 277.247692,0.0575382692 C344.8586,1.60742737 410.15142,34.6717281 469.26267,70.3191773 Z" id="Path"></path>
        </g>
        <circle id="Oval" fill="#D77A68" cx="1844" cy="313" r="6"></circle>
        <circle id="Oval" fill="#D77A68" cx="1844" cy="373" r="6"></circle>
        <circle id="Oval" fill="#D77A68" cx="1844" cy="334" r="6"></circle>
        <circle id="Oval" fill="#D77A68" cx="1844" cy="352" r="6"></circle>
        <polygon id="Triangle" fill="#265854" transform="translate(298.617479, 193.114421) rotate(17.000000) translate(-298.617479, -193.114421) " points="298.617479 169.114421 323.117479 217.114421 274.117479 217.114421"></polygon>
        <path d="M308.617479,180.104951 L342.245898,237.614421 L274.98906,237.614421 L308.617479,180.104951 Z" id="Triangle" stroke="#265854" transform="translate(308.617479, 208.614421) rotate(17.000000) translate(-308.617479, -208.614421) "></path>
    </g>
</svg>