<?xml version="1.0" encoding="UTF-8"?>
<svg width="1983px" height="1307px" viewBox="0 0 1983 1307" version="1.1" xmlns="http://www.w3.org/2000/svg" xmlns:xlink="http://www.w3.org/1999/xlink">
    <title>Slice</title>
    <defs>
        <filter x="-2.0%" y="-2.0%" width="104.0%" height="104.0%" filterUnits="objectBoundingBox" id="filter-1">
            <feGaussianBlur stdDeviation="1" in="SourceGraphic"></feGaussianBlur>
        </filter>
    </defs>
    <g id="Page-1" stroke="none" stroke-width="1" fill="none" fill-rule="evenodd">
        <rect id="Rectangle" fill="#0A0C1F" x="-3" y="0" width="1986" height="1307"></rect>
        <path d="M0.0346962082,873.525951 C167.057786,1046.96794 417.386603,1117.79262 751.021148,1086 C1251.47296,1038.31107 1599.82615,737.611177 1689.56157,712.527985 C1779.29699,687.444793 1789.73553,839.753092 1896.13731,765.380366 C1967.07183,715.798548 1996.0276,629.810802 1983.00463,507.417125 L1983.00463,1307 L0.0346962082,1307 L0.0346962082,873.525951 Z" id="Path" fill="#191D47"></path>
        <path d="M-3,482.50582 C91.2003773,319.413432 200.694238,247.204034 325.481582,265.877626 C512.662598,293.888015 501.704356,462.776302 743.769016,543.668843 C985.833675,624.561385 1022.35584,358.737749 1419.43961,531.477035 C1684.16213,646.636559 1872.01559,839.953852 1983,1111.42891 L-3,1125 L-3,482.50582 Z" id="Path-2" fill-opacity="0.301409528" fill="#1B1F4D"></path>
        <path d="M-2.90271513,812.993338 C89.495238,684.335769 196.89405,627.372439 319.293721,642.103347 C502.893227,664.19971 492.14466,797.429449 729.577669,861.242591 C967.010678,925.055732 1002.83403,715.357273 1392.32003,851.624923 C1651.97736,942.470023 1836.23645,1094.9709 1945.09728,1309.12756 L-2.90271513,1319.83329 L-2.90271513,812.993338 Z" id="Path-2" fill-opacity="0.506091565" fill="#1B1F4D"></path>
        <circle id="Oval" fill="#E9E4B6" filter="url(#filter-1)" cx="1711" cy="264" r="75"></circle>
        <ellipse id="Oval" fill="#E6DF96" cx="1726.5" cy="281.5" rx="29.5" ry="28.5"></ellipse>
        <circle id="Oval" fill="#E6DF96" cx="1671" cy="263" r="10"></circle>
        <circle id="Oval" fill="#C3C8F5" cx="909" cy="339" r="9"></circle>
        <circle id="Oval" fill="#C3C8F5" cx="686" cy="116" r="10"></circle>
        <circle id="Oval" fill="#C3C8F5" cx="1484" cy="138" r="10"></circle>
        <circle id="Oval" fill="#C3C8F5" cx="118" cy="142" r="5"></circle>
        <circle id="Oval" fill="#C3C8F5" cx="1070" cy="101" r="5"></circle>
        <circle id="Oval" fill="#C3C8F5" cx="990" cy="125" r="5"></circle>
        <circle id="Oval" fill="#C3C8F5" cx="1909" cy="84" r="5"></circle>
        <polygon id="Triangle" fill="#0A0C1F" points="221.5 599 258 680 185 680"></polygon>
        <polygon id="Triangle" fill="#0A0C1F" points="457.5 735 494 816 421 816"></polygon>
        <polygon id="Triangle" fill="#0A0C1F" points="305 826 334 888 276 888"></polygon>
        <polygon id="Triangle" fill="#0A0C1F" points="123.5 776 160 857 87 857"></polygon>
        <rect id="Rectangle" fill="#103C64" transform="translate(188.500000, 1212.000000) rotate(63.000000) translate(-188.500000, -1212.000000) " x="185" y="996" width="7" height="432"></rect>
        <polygon id="Triangle" fill="#0A0C1F" points="317 580 376 775 258 775"></polygon>
        <path d="M166.585411,1114.24829 C163.372898,1054.61921 173.382177,1015.37932 196.613248,996.528618 C219.84432,977.677914 263.973237,959.168374 329,941 C316.342536,1016.8153 295.457189,1066.53482 266.343962,1090.15856 C237.230734,1113.7823 203.977883,1121.81221 166.585411,1114.24829 Z" id="Path-3" fill="#1C5D98"></path>
        <path d="M371.197304,1145.67265 C369.305271,1112.1313 375.200307,1090.05886 388.88241,1079.45534 C402.564514,1068.85182 428.554551,1058.4402 466.852522,1048.22049 C459.397819,1090.8666 447.097247,1118.83383 429.950806,1132.12218 C412.804365,1145.41054 393.219864,1149.92736 371.197304,1145.67265 Z" id="Path-3" fill="#103C64" transform="translate(418.852522, 1097.720491) rotate(20.000000) translate(-418.852522, -1097.720491) "></path>
        <path d="M262.197531,1160.8274 C261.113554,1135.41728 264.490918,1118.69573 272.329624,1110.66276 C280.168329,1102.62979 295.058454,1094.74221 317,1087 C312.729076,1119.30766 305.681874,1140.49495 295.858392,1150.56189 C286.03491,1160.62882 274.814623,1164.05066 262.197531,1160.8274 Z" id="Path-3" fill="#103C64" transform="translate(289.500000, 1124.500000) rotate(-19.000000) translate(-289.500000, -1124.500000) "></path>
        <path d="M1837.28444,1269.99467 C1833.21532,1192.93125 1845.43583,1142.2567 1873.94598,1117.97101 C1902.45612,1093.68533 1956.64816,1069.9065 2036.5221,1046.63454 C2021.12165,1144.56382 1995.55694,1208.7459 1959.82796,1239.18077 C1924.09899,1269.61564 1883.25115,1279.88694 1837.28444,1269.99467 Z" id="Path-3" fill="#0C3254" transform="translate(1936.522098, 1160.134540) rotate(-71.000000) translate(-1936.522098, -1160.134540) "></path>
        <path d="M208.269361,1252.70232 C206.791211,1224.58179 211.396707,1206.07661 222.08585,1197.18679 C232.774994,1188.29697 253.07971,1179.56804 283,1171 C277.176013,1206.75381 267.566191,1230.20108 254.170534,1241.34182 C240.774877,1252.48256 225.474486,1256.2694 208.269361,1252.70232 Z" id="Path-3" fill="#103C64" transform="translate(245.500000, 1212.500000) rotate(48.000000) translate(-245.500000, -1212.500000) "></path>
        <path d="M312.204714,1188.14009 C311.08132,1169.506 314.581497,1157.24354 322.705246,1151.35269 C330.828995,1145.46185 346.26058,1139.67762 369,1134 C364.57377,1157.69228 357.270306,1173.22963 347.089606,1180.61205 C336.908907,1187.99447 325.28061,1190.50382 312.204714,1188.14009 Z" id="Path-3" fill="#103C64" transform="translate(340.500000, 1161.500000) rotate(56.000000) translate(-340.500000, -1161.500000) "></path>
        <path d="M1808.61885,1366.19344 C1805.42459,1293.88283 1815.01769,1246.33358 1837.39816,1223.54569 C1859.77862,1200.7578 1902.31937,1178.44551 1965.02041,1156.60882 C1952.93106,1248.49841 1932.86276,1308.72212 1904.81552,1337.27996 C1876.76827,1365.83779 1844.70272,1375.47562 1808.61885,1366.19344 Z" id="Path-3" fill="#103C64" transform="translate(1886.520413, 1263.108823) rotate(-118.000000) translate(-1886.520413, -1263.108823) "></path>
        <g id="Group" transform="translate(204.000000, 1003.000000)" fill="#103C64">
            <rect id="Rectangle" x="5" y="65" width="62" height="5"></rect>
            <polygon id="Rectangle" transform="translate(5.198141, 34.767516) rotate(86.000000) translate(-5.198141, -34.767516) " points="-25.8017007 32.2652457 36.2003712 32.2356172 36.1979818 37.2697872 -25.8040901 37.2994157"></polygon>
            <polygon id="Rectangle" transform="translate(33.683155, 16.774824) rotate(86.000000) translate(-33.683155, -16.774824) " points="17.1837984 14.2656243 50.1849012 14.2498543 50.1825118 19.2840242 17.181409 19.2997943"></polygon>
            <rect id="Rectangle" x="26" y="40" width="44" height="5"></rect>
        </g>
        <g id="Group" transform="translate(119.000000, 1072.500000) rotate(-51.000000) translate(-119.000000, -1072.500000) translate(65.000000, 1018.000000)">
            <path d="M0.508851138,106.505602 C-1.59997666,69.9150315 4.9705317,45.8360075 20.2203762,34.2685299 C35.4702208,22.7010523 64.438283,11.3429259 107.124563,0.194150677 C98.8156753,46.7171745 85.1056628,77.2268801 65.9945255,91.7232674 C46.8833881,106.219655 25.05483,111.1471 0.508851138,106.505602 Z" id="Path-3" fill="#1C5D98"></path>
            <rect id="Rectangle" fill="#103C64" x="29.7414605" y="74.7351266" width="41" height="3"></rect>
            <polygon id="Rectangle" fill="#103C64" transform="translate(29.649478, 56.311885) rotate(86.000000) translate(-29.649478, -56.311885) " points="10.627834 54.7623007 48.6874249 54.5601404 48.6711217 57.8614695 10.6115307 58.0636298"></polygon>
            <polygon id="Rectangle" fill="#103C64" transform="translate(48.335331, 45.270915) rotate(86.000000) translate(-48.335331, -45.270915) " points="38.2147203 43.6740511 58.4722445 43.5664496 58.4559412 46.8677787 38.198417 46.9753802"></polygon>
            <rect id="Rectangle" fill="#103C64" x="43.7705531" y="59.2259786" width="29" height="3"></rect>
        </g>
        <g id="Group" transform="translate(207.000000, 1183.500000) rotate(44.000000) translate(-207.000000, -1183.500000) translate(153.000000, 1129.000000)">
            <path d="M0.508851138,106.505602 C-1.59997666,69.9150315 4.9705317,45.8360075 20.2203762,34.2685299 C35.4702208,22.7010523 64.438283,11.3429259 107.124563,0.194150677 C98.8156753,46.7171745 85.1056628,77.2268801 65.9945255,91.7232674 C46.8833881,106.219655 25.05483,111.1471 0.508851138,106.505602 Z" id="Path-3" fill="#1C5D98"></path>
            <rect id="Rectangle" fill="#103C64" x="29.7414605" y="74.7351266" width="41" height="3"></rect>
            <polygon id="Rectangle" fill="#103C64" transform="translate(29.649478, 56.311885) rotate(86.000000) translate(-29.649478, -56.311885) " points="10.627834 54.7623007 48.6874249 54.5601404 48.6711217 57.8614695 10.6115307 58.0636298"></polygon>
            <polygon id="Rectangle" fill="#103C64" transform="translate(48.335331, 45.270915) rotate(86.000000) translate(-48.335331, -45.270915) " points="38.2147203 43.6740511 58.4722445 43.5664496 58.4559412 46.8677787 38.198417 46.9753802"></polygon>
            <rect id="Rectangle" fill="#103C64" x="43.7705531" y="59.2259786" width="29" height="3"></rect>
        </g>
        <g id="Group" transform="translate(247.000000, 1266.500000) rotate(44.000000) translate(-247.000000, -1266.500000) translate(207.000000, 1225.000000)">
            <path d="M0.409271472,81.4041222 C-1.14771354,53.6223927 3.70340946,35.3401707 14.9626405,26.5574562 C26.2218715,17.7747418 47.6095062,9.15097915 79.1255447,0.686168324 C72.9909454,36.009205 62.8685997,59.1739814 48.7585077,70.1804977 C34.6484156,81.187014 18.5320036,84.9282221 0.409271472,81.4041222 Z" id="Path-3" fill="#1C5D98"></path>
            <rect id="Rectangle" fill="#103C64" x="21.8610411" y="57.2574543" width="30" height="2"></rect>
            <polygon id="Rectangle" fill="#103C64" transform="translate(21.962576, 42.879692) rotate(86.000000) translate(-21.962576, -42.879692) " points="7.47788862 41.7042602 36.4549149 41.609386 36.4472637 44.0551244 7.47023748 44.1499986"></polygon>
            <polygon id="Rectangle" fill="#103C64" transform="translate(35.803949, 34.472348) rotate(86.000000) translate(-35.803949, -34.472348) " points="28.0961463 33.2747276 43.5194022 33.2242301 43.5117511 35.6699685 28.0884952 35.720466"></polygon>
            <rect id="Rectangle" fill="#103C64" x="31.8794968" y="44.9775257" width="21" height="2"></rect>
        </g>
        <g id="Group" transform="translate(63.000000, 1156.500000) rotate(-51.000000) translate(-63.000000, -1156.500000) translate(9.000000, 1102.000000)">
            <path d="M0.508851138,106.505602 C-1.59997666,69.9150315 4.9705317,45.8360075 20.2203762,34.2685299 C35.4702208,22.7010523 64.438283,11.3429259 107.124563,0.194150677 C98.8156753,46.7171745 85.1056628,77.2268801 65.9945255,91.7232674 C46.8833881,106.219655 25.05483,111.1471 0.508851138,106.505602 Z" id="Path-3" fill="#1C5D98"></path>
            <rect id="Rectangle" fill="#103C64" x="29.7414605" y="74.7351266" width="41" height="3"></rect>
            <polygon id="Rectangle" fill="#103C64" transform="translate(29.649478, 56.311885) rotate(86.000000) translate(-29.649478, -56.311885) " points="10.627834 54.7623007 48.6874249 54.5601404 48.6711217 57.8614695 10.6115307 58.0636298"></polygon>
            <polygon id="Rectangle" fill="#103C64" transform="translate(48.335331, 45.270915) rotate(86.000000) translate(-48.335331, -45.270915) " points="38.2147203 43.6740511 58.4722445 43.5664496 58.4559412 46.8677787 38.198417 46.9753802"></polygon>
            <rect id="Rectangle" fill="#103C64" x="43.7705531" y="59.2259786" width="29" height="3"></rect>
        </g>
        <rect id="Rectangle" fill="#103C64" transform="translate(139.259864, 1152.752872) rotate(41.000000) translate(-139.259864, -1152.752872) " x="135.759864" y="936.752872" width="7" height="432" rx="3.5"></rect>
        <rect id="Rectangle" fill="#103C64" transform="translate(121.483944, 1101.571050) rotate(-8.000000) translate(-121.483944, -1101.571050) " x="118.983944" y="1038.07105" width="5" height="127" rx="2.5"></rect>
        <rect id="Rectangle" fill="#103C64" transform="translate(164.500000, 1181.500000) rotate(91.000000) translate(-164.500000, -1181.500000) " x="161" y="1130" width="7" height="103" rx="3.5"></rect>
        <rect id="Rectangle" fill="#103C64" transform="translate(156.490557, 1263.582049) rotate(91.000000) translate(-156.490557, -1263.582049) " x="152.990557" y="1150.08205" width="7" height="227" rx="3.5"></rect>
        <rect id="Rectangle" fill="#103C64" transform="translate(62.454715, 1168.554781) rotate(-6.000000) translate(-62.454715, -1168.554781) " x="59.9547154" y="1107.05478" width="5" height="123" rx="2.5"></rect>
        <ellipse id="Oval" fill-opacity="0.436134178" fill="#0A0C1F" cx="515.5" cy="861.5" rx="34.5" ry="4.5"></ellipse>
        <ellipse id="Oval" fill-opacity="0.436134178" fill="#0A0C1F" cx="455.5" cy="913.5" rx="34.5" ry="6.5"></ellipse>
        <ellipse id="Oval" fill-opacity="0.436134178" fill="#0A0C1F" cx="1092.5" cy="859" rx="18.5" ry="7"></ellipse>
        <ellipse id="Oval" fill-opacity="0.436134178" fill="#0A0C1F" cx="223" cy="819.5" rx="18" ry="6.5"></ellipse>
        <ellipse id="Oval" fill-opacity="0.436134178" fill="#0A0C1F" cx="1207.5" cy="888" rx="34.5" ry="9"></ellipse>
        <rect id="Rectangle" fill="#1C5D98" transform="translate(1886.641484, 1193.703793) rotate(-41.000000) translate(-1886.641484, -1193.703793) " x="1880.14148" y="988.703793" width="13" height="410" rx="6.5"></rect>
        <rect id="Rectangle" fill="#1C5D98" transform="translate(1876.781089, 1113.989438) rotate(-30.000000) translate(-1876.781089, -1113.989438) " x="1867.78109" y="847.489438" width="18" height="533" rx="9"></rect>
        <circle id="Oval" fill="#1C5D98" cx="1756" cy="1043" r="21"></circle>
        <circle id="Oval" fill="#1C5D98" cx="1743" cy="882" r="30"></circle>
    </g>
</svg>