<?xml version="1.0" encoding="UTF-8"?>
<svg width="404px" height="359px" viewBox="0 0 404 359" version="1.1" xmlns="http://www.w3.org/2000/svg" xmlns:xlink="http://www.w3.org/1999/xlink">
    <title>Slice</title>
    <g id="Page-1" stroke="none" stroke-width="1" fill="none" fill-rule="evenodd">
        <rect id="Rectangle" fill="#EAB2A7" x="0" y="0" width="404" height="359"></rect>
        <path d="M0,239.352839 C13.9634719,223.241794 29.9358425,209.196623 47.9171118,197.217327 C65.3062767,185.632496 87.2789105,179.727782 113.835013,179.503186 C115.870434,179.485971 117.904854,179.406614 119.935431,179.265226 L229.495003,171.63665 C248.771084,170.294466 266.932369,162.105597 280.700638,148.548182 L316.531277,113.266271 C334.677393,95.3980527 359.122613,85.3828283 384.589351,85.3828283 L404,85.3828283 L404,85.3828283 L404,359 L0,359 L0,239.352839 Z" id="Path-5" fill="#F0B8AD"></path>
        <path d="M0,280.289702 C13.9634719,269.690996 29.9358425,260.451332 47.9171118,252.57071 C65.4688269,244.878349 87.690102,240.992858 114.580937,240.914238 C116.00933,240.910061 117.43747,240.875281 118.864373,240.80992 L237.448095,235.378075 C251.800951,234.720628 265.720641,230.25727 277.779543,222.445769 L320.783933,194.588438 C336.490987,184.413742 354.806022,179 373.520615,179 L404,179 L404,179 L404,359 L0,359 L0,280.289702 Z" id="Path-5" fill="#F2BCB1"></path>
    </g>
</svg>